<svg width="290" height="117" viewBox="0 0 290 117" fill="none" xmlns="http://www.w3.org/2000/svg">
<rect width="290" height="117" fill="#FF513A" fill-opacity="0.93"/>
<path d="M55.168 55.088V61.904H65.984V65.424H55.168V74H51.008V51.6H67.36V55.088H55.168ZM70.6865 56.912H74.6865V74H70.6865V56.912ZM72.7025 54.096C71.9772 54.096 71.3692 53.872 70.8785 53.424C70.3878 52.9547 70.1425 52.3787 70.1425 51.696C70.1425 51.0133 70.3878 50.448 70.8785 50C71.3692 49.5307 71.9772 49.296 72.7025 49.296C73.4278 49.296 74.0358 49.52 74.5265 49.968C75.0172 50.3947 75.2625 50.9387 75.2625 51.6C75.2625 52.304 75.0172 52.9013 74.5265 53.392C74.0572 53.8613 73.4492 54.096 72.7025 54.096ZM89.6325 56.72C91.7872 56.72 93.5152 57.3493 94.8165 58.608C96.1178 59.8667 96.7685 61.7333 96.7685 64.208V74H92.7685V64.72C92.7685 63.2267 92.4165 62.1067 91.7125 61.36C91.0085 60.592 90.0058 60.208 88.7045 60.208C87.2325 60.208 86.0698 60.656 85.2165 61.552C84.3632 62.4267 83.9365 63.696 83.9365 65.36V74H79.9365V56.912H83.7445V59.12C84.4058 58.3307 85.2378 57.7333 86.2405 57.328C87.2432 56.9227 88.3738 56.72 89.6325 56.72ZM118.735 50.256V74H114.895V71.792C114.234 72.6027 113.412 73.2107 112.431 73.616C111.471 74.0213 110.404 74.224 109.231 74.224C107.588 74.224 106.106 73.8613 104.783 73.136C103.482 72.4107 102.458 71.3867 101.711 70.064C100.964 68.72 100.591 67.184 100.591 65.456C100.591 63.728 100.964 62.2027 101.711 60.88C102.458 59.5573 103.482 58.5333 104.783 57.808C106.106 57.0827 107.588 56.72 109.231 56.72C110.362 56.72 111.396 56.912 112.335 57.296C113.274 57.68 114.074 58.256 114.735 59.024V50.256H118.735ZM109.711 70.8C110.671 70.8 111.535 70.5867 112.303 70.16C113.071 69.712 113.679 69.0827 114.127 68.272C114.575 67.4613 114.799 66.5227 114.799 65.456C114.799 64.3893 114.575 63.4507 114.127 62.64C113.679 61.8293 113.071 61.2107 112.303 60.784C111.535 60.336 110.671 60.112 109.711 60.112C108.751 60.112 107.887 60.336 107.119 60.784C106.351 61.2107 105.743 61.8293 105.295 62.64C104.847 63.4507 104.623 64.3893 104.623 65.456C104.623 66.5227 104.847 67.4613 105.295 68.272C105.743 69.0827 106.351 69.712 107.119 70.16C107.887 70.5867 108.751 70.8 109.711 70.8ZM133.196 51.6H137.356V70.48H149.068V74H133.196V51.6ZM159.492 74.224C157.764 74.224 156.206 73.8507 154.82 73.104C153.433 72.3573 152.345 71.3227 151.556 70C150.788 68.656 150.404 67.1413 150.404 65.456C150.404 63.7707 150.788 62.2667 151.556 60.944C152.345 59.6213 153.433 58.5867 154.82 57.84C156.206 57.0933 157.764 56.72 159.492 56.72C161.241 56.72 162.809 57.0933 164.196 57.84C165.582 58.5867 166.66 59.6213 167.428 60.944C168.217 62.2667 168.612 63.7707 168.612 65.456C168.612 67.1413 168.217 68.656 167.428 70C166.66 71.3227 165.582 72.3573 164.196 73.104C162.809 73.8507 161.241 74.224 159.492 74.224ZM159.492 70.8C160.964 70.8 162.18 70.3093 163.14 69.328C164.1 68.3467 164.58 67.056 164.58 65.456C164.58 63.856 164.1 62.5653 163.14 61.584C162.18 60.6027 160.964 60.112 159.492 60.112C158.02 60.112 156.804 60.6027 155.844 61.584C154.905 62.5653 154.436 63.856 154.436 65.456C154.436 67.056 154.905 68.3467 155.844 69.328C156.804 70.3093 158.02 70.8 159.492 70.8ZM180.277 74.224C178.506 74.224 176.917 73.8507 175.509 73.104C174.101 72.3573 173.002 71.3227 172.213 70C171.423 68.656 171.029 67.1413 171.029 65.456C171.029 63.7707 171.423 62.2667 172.213 60.944C173.002 59.6213 174.09 58.5867 175.477 57.84C176.885 57.0933 178.485 56.72 180.277 56.72C181.962 56.72 183.434 57.0613 184.693 57.744C185.973 58.4267 186.933 59.408 187.573 60.688L184.501 62.48C184.01 61.6907 183.391 61.104 182.645 60.72C181.919 60.3147 181.119 60.112 180.245 60.112C178.751 60.112 177.514 60.6027 176.533 61.584C175.551 62.544 175.061 63.8347 175.061 65.456C175.061 67.0773 175.541 68.3787 176.501 69.36C177.482 70.32 178.73 70.8 180.245 70.8C181.119 70.8 181.919 70.608 182.645 70.224C183.391 69.8187 184.01 69.2213 184.501 68.432L187.573 70.224C186.911 71.504 185.941 72.496 184.661 73.2C183.402 73.8827 181.941 74.224 180.277 74.224ZM197.85 66.672L194.874 69.488V74H190.874V50.256H194.874V64.592L203.162 56.912H207.962L200.826 64.08L208.634 74H203.77L197.85 66.672ZM226.563 65.552C226.563 65.8293 226.542 66.224 226.499 66.736H213.091C213.326 67.9947 213.934 68.9973 214.915 69.744C215.918 70.4693 217.155 70.832 218.627 70.832C220.504 70.832 222.051 70.2133 223.267 68.976L225.411 71.44C224.643 72.3573 223.672 73.0507 222.499 73.52C221.326 73.9893 220.003 74.224 218.531 74.224C216.654 74.224 215 73.8507 213.571 73.104C212.142 72.3573 211.032 71.3227 210.243 70C209.475 68.656 209.091 67.1413 209.091 65.456C209.091 63.792 209.464 62.2987 210.211 60.976C210.979 59.632 212.035 58.5867 213.379 57.84C214.723 57.0933 216.238 56.72 217.923 56.72C219.587 56.72 221.07 57.0933 222.371 57.84C223.694 58.5653 224.718 59.6 225.443 60.944C226.19 62.2667 226.563 63.8027 226.563 65.552ZM217.923 59.92C216.643 59.92 215.555 60.304 214.659 61.072C213.784 61.8187 213.251 62.8213 213.059 64.08H222.755C222.584 62.8427 222.062 61.84 221.187 61.072C220.312 60.304 219.224 59.92 217.923 59.92ZM234.213 59.408C235.365 57.616 237.392 56.72 240.293 56.72V60.528C239.952 60.464 239.643 60.432 239.365 60.432C237.808 60.432 236.592 60.8907 235.717 61.808C234.843 62.704 234.405 64.0053 234.405 65.712V74H230.405V56.912H234.213V59.408Z" fill="white"/>
<rect x="46" y="85" width="199" height="24" fill="white"/>
<path d="M58.6602 95.3866C58.6602 94.5663 58.836 93.807 59.1876 93.1088C59.5391 92.4056 60.0518 91.7928 60.7256 91.2704C61.2286 90.8846 61.7706 90.5892 62.3516 90.3841C62.9327 90.1742 63.5186 90.0692 64.1094 90.0692C64.8614 90.0692 65.5889 90.2352 66.2921 90.5673C66.9952 90.8944 67.6104 91.3583 68.1378 91.9589C68.9971 92.9354 69.4268 94.0463 69.4268 95.2914C69.4268 95.9164 69.3145 96.5194 69.0899 97.1005C68.8653 97.6815 68.5381 98.2113 68.1085 98.6898C67.5811 99.2855 66.9561 99.7469 66.2335 100.074C65.5157 100.401 64.7637 100.565 63.9776 100.565C63.2012 100.565 62.459 100.406 61.751 100.089C61.043 99.7714 60.4327 99.3221 59.92 98.7411C59.5147 98.287 59.2022 97.7718 58.9825 97.1957C58.7676 96.6146 58.6602 96.0116 58.6602 95.3866ZM60.4327 95.4965C60.4327 96.9125 60.8184 98.1063 61.5899 99.078C61.9366 99.5126 62.3028 99.83 62.6885 100.03C63.0792 100.225 63.5284 100.323 64.0362 100.323C64.5489 100.323 64.9981 100.225 65.3839 100.03C65.7745 99.8348 66.1456 99.5175 66.4971 99.078C67.2686 98.1014 67.6544 96.8978 67.6544 95.4672C67.6544 94.681 67.5469 93.9388 67.3321 93.2406C67.1221 92.5375 66.8243 91.9418 66.4385 91.4535C66.126 91.0531 65.7769 90.7626 65.3912 90.5819C65.0103 90.3964 64.5587 90.3036 64.0362 90.3036C63.5186 90.3036 63.0694 90.3939 62.6885 90.5746C62.3126 90.7552 61.9634 91.0482 61.6412 91.4535C61.2554 91.9369 60.9576 92.5301 60.7476 93.2333C60.5377 93.9364 60.4327 94.6908 60.4327 95.4965ZM73.2328 93.9657C73.3011 94.2489 73.3353 94.5126 73.3353 94.7567V94.8739C73.9408 94.2782 74.661 93.9803 75.496 93.9803C76.121 93.9803 76.6239 94.1268 77.0047 94.4198C77.3807 94.7079 77.5687 95.118 77.5687 95.6503V98.7557C77.5687 99.0878 77.5882 99.3319 77.6273 99.4882C77.6664 99.6395 77.7421 99.7665 77.8544 99.869C77.9911 100.001 78.2425 100.101 78.6088 100.169V100.316H75.3788V100.169C75.6717 100.13 75.8817 100.077 76.0087 100.008C76.1356 99.9349 76.2381 99.8129 76.3163 99.642C76.37 99.5297 76.4066 99.3612 76.4261 99.1366C76.4505 98.9071 76.4628 98.58 76.4628 98.1551V96.6024C76.4628 96.0702 76.4432 95.6796 76.4042 95.4305C76.37 95.1815 76.3016 94.9813 76.1991 94.83C76.0868 94.6591 75.9256 94.5272 75.7157 94.4344C75.5057 94.3368 75.2738 94.288 75.0199 94.288C74.7464 94.288 74.4901 94.3417 74.2508 94.4491C74.0165 94.5565 73.8309 94.703 73.6942 94.8885C73.5477 95.0839 73.4501 95.306 73.4012 95.555C73.3573 95.7992 73.3353 96.2069 73.3353 96.7782V98.2137L73.3426 98.7557C73.3426 99.0878 73.3622 99.3319 73.4012 99.4882C73.4403 99.6395 73.516 99.7665 73.6283 99.869C73.765 100.001 74.0165 100.101 74.3827 100.169V100.316H71.1527V100.169C71.4457 100.13 71.6556 100.077 71.7826 100.008C71.9095 99.9349 72.0121 99.8129 72.0902 99.642C72.1439 99.5297 72.1805 99.3612 72.2001 99.1366C72.2245 98.9071 72.2367 98.5775 72.2367 98.1478V96.3387C72.2367 95.8358 72.2245 95.4842 72.2001 95.2841C72.1756 95.079 72.1219 94.913 72.0389 94.786C71.9559 94.6493 71.8558 94.5516 71.7386 94.493C71.6214 94.4296 71.453 94.3905 71.2333 94.3758V94.2294L73.2328 93.9657ZM81.3307 96.3314C81.3112 96.5707 81.3014 96.744 81.3014 96.8514C81.3014 97.2762 81.3625 97.6913 81.4845 98.0966C81.6115 98.5018 81.7824 98.8387 81.9972 99.1073C82.217 99.3807 82.488 99.5956 82.8102 99.7518C83.1374 99.9081 83.4792 99.9862 83.8356 99.9862C84.0993 99.9862 84.3483 99.9423 84.5827 99.8544C84.8219 99.7665 85.0197 99.6444 85.1759 99.4882C85.3517 99.3173 85.5031 99.0438 85.63 98.6678L85.7765 98.7191C85.6496 99.2904 85.3761 99.7225 84.9562 100.015C84.5412 100.304 83.987 100.448 83.2936 100.448C82.693 100.448 82.1779 100.352 81.7482 100.162C81.3185 99.9716 80.9547 99.6786 80.6569 99.2831C80.2419 98.7313 80.0343 98.0526 80.0343 97.2469C80.0343 96.1483 80.4274 95.2865 81.2135 94.6615C81.7848 94.2074 82.4367 93.9803 83.1691 93.9803C83.5597 93.9803 83.9211 94.0511 84.2531 94.1927C84.5851 94.3295 84.8659 94.5297 85.0954 94.7933C85.4518 95.2035 85.63 95.7162 85.63 96.3314H81.3307ZM84.5387 96.0458C84.5046 95.5575 84.4142 95.1815 84.2677 94.9178C84.1359 94.6786 83.9601 94.4906 83.7404 94.3539C83.5207 94.2123 83.2863 94.1415 83.0373 94.1415C82.6173 94.1415 82.2487 94.3221 81.9313 94.6835C81.6188 95.0448 81.4333 95.4989 81.3747 96.0458H84.5387ZM93.9524 91.6439V98.016C93.9524 98.5189 93.9793 98.89 94.033 99.1293C94.0916 99.3685 94.1965 99.5663 94.3479 99.7225C94.4846 99.8641 94.6384 99.9667 94.8093 100.03C94.9851 100.094 95.2122 100.133 95.4905 100.147V100.316H92.114V100.147C92.3923 100.133 92.617 100.094 92.7879 100.03C92.9636 99.9667 93.1199 99.8641 93.2566 99.7225C93.408 99.5663 93.5105 99.3685 93.5642 99.1293C93.6228 98.8851 93.6521 98.514 93.6521 98.016V92.6107C93.6521 92.1175 93.6228 91.7513 93.5642 91.5121C93.5105 91.2679 93.408 91.0677 93.2566 90.9115C93.1248 90.7699 92.971 90.6674 92.7952 90.6039C92.6243 90.5404 92.3972 90.5013 92.114 90.4867V90.3182H94.9338L100.881 97.9061V92.618C100.881 92.1151 100.852 91.744 100.793 91.5048C100.74 91.2655 100.637 91.0677 100.486 90.9115C100.349 90.7699 100.193 90.6674 100.017 90.6039C99.846 90.5404 99.6213 90.5013 99.343 90.4867V90.3182H102.719V90.4867C102.231 90.4867 101.85 90.6283 101.577 90.9115C101.426 91.0677 101.321 91.2679 101.262 91.5121C101.208 91.7513 101.181 92.1175 101.181 92.6107V100.316H100.852L93.9524 91.6439ZM110.378 99.6053L110.503 99.6786C110.327 100.191 109.924 100.448 109.294 100.448C108.947 100.448 108.659 100.362 108.43 100.191C108.278 100.079 108.122 99.8837 107.961 99.6053C107.634 99.8983 107.387 100.091 107.221 100.184C106.904 100.36 106.535 100.448 106.115 100.448C105.578 100.448 105.151 100.318 104.834 100.059C104.521 99.8007 104.365 99.4515 104.365 99.0121C104.365 98.6068 104.494 98.2675 104.753 97.994C104.899 97.8426 105.068 97.723 105.258 97.6351C105.449 97.5424 105.725 97.4496 106.086 97.3568C106.511 97.2494 106.823 97.1591 107.023 97.0858C107.229 97.0126 107.399 96.9247 107.536 96.8221C107.692 96.7098 107.8 96.578 107.858 96.4266C107.917 96.2753 107.946 96.0653 107.946 95.7967C107.946 95.2255 107.839 94.808 107.624 94.5443C107.526 94.4222 107.399 94.3246 107.243 94.2513C107.092 94.1781 106.933 94.1415 106.767 94.1415C106.567 94.1415 106.389 94.1927 106.232 94.2953C106.076 94.3978 105.959 94.5394 105.881 94.7201L105.698 95.1449C105.6 95.3744 105.424 95.4891 105.17 95.4891C105.004 95.4891 104.865 95.4354 104.753 95.328C104.641 95.2157 104.585 95.0765 104.585 94.9105C104.585 94.6615 104.76 94.4515 105.112 94.2806C105.302 94.1927 105.537 94.1219 105.815 94.0682C106.098 94.0096 106.374 93.9803 106.643 93.9803C106.945 93.9803 107.26 94.0194 107.587 94.0975C107.915 94.1757 108.188 94.2758 108.408 94.3978C108.725 94.5785 108.923 94.8129 109.001 95.1009C109.04 95.2474 109.06 95.494 109.06 95.8407V98.5507C109.06 99.0096 109.079 99.3221 109.118 99.4882C109.201 99.8348 109.401 100.008 109.719 100.008C109.87 100.008 109.987 99.9813 110.07 99.9276C110.158 99.8739 110.261 99.7665 110.378 99.6053ZM107.961 96.7196C107.697 96.9393 107.407 97.1322 107.089 97.2982C106.733 97.4886 106.486 97.6327 106.35 97.7303C106.213 97.828 106.088 97.9452 105.976 98.0819C105.747 98.3651 105.632 98.6947 105.632 99.0707C105.632 99.3929 105.72 99.6591 105.896 99.869C106.076 100.079 106.303 100.184 106.577 100.184C106.816 100.184 107.041 100.111 107.251 99.9642C107.465 99.8129 107.627 99.6127 107.734 99.3636C107.885 99.0365 107.961 98.5629 107.961 97.9427V96.7196ZM111.423 94.2294L113.525 93.9657V98.1991L113.532 98.7557C113.532 99.0878 113.552 99.3319 113.591 99.4882C113.63 99.6395 113.705 99.7665 113.818 99.869C113.954 100.001 114.206 100.101 114.572 100.169V100.316H111.342V100.169C111.635 100.13 111.845 100.077 111.972 100.008C112.099 99.9349 112.202 99.8129 112.28 99.642C112.333 99.5297 112.37 99.3612 112.39 99.1366C112.414 98.9071 112.426 98.5775 112.426 98.1478V96.3387C112.426 95.8358 112.414 95.4842 112.39 95.2841C112.365 95.079 112.311 94.913 112.228 94.786C112.145 94.6493 112.045 94.5516 111.928 94.493C111.811 94.4296 111.642 94.3905 111.423 94.3758V94.2294ZM112.946 91.3509C112.756 91.3509 112.597 91.2899 112.47 91.1678C112.348 91.0458 112.287 90.892 112.287 90.7064C112.287 90.5258 112.35 90.3744 112.477 90.2523C112.604 90.1254 112.761 90.0619 112.946 90.0619C113.132 90.0619 113.288 90.1254 113.415 90.2523C113.542 90.3744 113.605 90.5258 113.605 90.7064C113.605 90.892 113.542 91.0458 113.415 91.1678C113.293 91.2899 113.137 91.3509 112.946 91.3509ZM117.887 95.1083C118.063 94.8007 118.261 94.5687 118.481 94.4125C118.886 94.1244 119.347 93.9803 119.865 93.9803C120.182 93.9803 120.424 94.0511 120.59 94.1927C120.741 94.3197 120.817 94.4759 120.817 94.6615C120.817 94.7982 120.771 94.9105 120.678 94.9984C120.59 95.0863 120.475 95.1302 120.334 95.1302C120.168 95.1302 120.024 95.0619 119.902 94.9252L119.674 94.6761C119.494 94.4857 119.281 94.3905 119.037 94.3905C118.705 94.3905 118.446 94.6053 118.261 95.035C118.075 95.4647 117.983 96.0629 117.983 96.8295V98.1991L117.99 98.7557C117.99 99.0878 118.009 99.3319 118.049 99.4882C118.088 99.6395 118.163 99.7665 118.276 99.869C118.412 100.001 118.664 100.101 119.03 100.169V100.316H115.8V100.169C116.093 100.13 116.303 100.077 116.43 100.008C116.557 99.9349 116.659 99.8129 116.737 99.642C116.791 99.5297 116.828 99.3612 116.847 99.1366C116.872 98.9071 116.884 98.5775 116.884 98.1478V96.3387C116.884 95.8358 116.872 95.4842 116.847 95.2841C116.823 95.079 116.769 94.913 116.686 94.786C116.603 94.6493 116.503 94.5516 116.386 94.493C116.269 94.4296 116.1 94.3905 115.881 94.3758V94.2294L117.763 93.9657C117.846 94.41 117.887 94.7909 117.887 95.1083ZM128.102 99.6053L128.227 99.6786C128.051 100.191 127.648 100.448 127.018 100.448C126.671 100.448 126.383 100.362 126.154 100.191C126.002 100.079 125.846 99.8837 125.685 99.6053C125.358 99.8983 125.111 100.091 124.945 100.184C124.628 100.36 124.259 100.448 123.839 100.448C123.302 100.448 122.875 100.318 122.558 100.059C122.245 99.8007 122.089 99.4515 122.089 99.0121C122.089 98.6068 122.218 98.2675 122.477 97.994C122.623 97.8426 122.792 97.723 122.982 97.6351C123.173 97.5424 123.449 97.4496 123.81 97.3568C124.235 97.2494 124.547 97.1591 124.748 97.0858C124.953 97.0126 125.123 96.9247 125.26 96.8221C125.416 96.7098 125.524 96.578 125.582 96.4266C125.641 96.2753 125.67 96.0653 125.67 95.7967C125.67 95.2255 125.563 94.808 125.348 94.5443C125.25 94.4222 125.123 94.3246 124.967 94.2513C124.816 94.1781 124.657 94.1415 124.491 94.1415C124.291 94.1415 124.113 94.1927 123.957 94.2953C123.8 94.3978 123.683 94.5394 123.605 94.7201L123.422 95.1449C123.324 95.3744 123.148 95.4891 122.894 95.4891C122.728 95.4891 122.589 95.4354 122.477 95.328C122.365 95.2157 122.309 95.0765 122.309 94.9105C122.309 94.6615 122.484 94.4515 122.836 94.2806C123.026 94.1927 123.261 94.1219 123.539 94.0682C123.822 94.0096 124.098 93.9803 124.367 93.9803C124.669 93.9803 124.984 94.0194 125.311 94.0975C125.639 94.1757 125.912 94.2758 126.132 94.3978C126.449 94.5785 126.647 94.8129 126.725 95.1009C126.764 95.2474 126.784 95.494 126.784 95.8407V98.5507C126.784 99.0096 126.803 99.3221 126.842 99.4882C126.925 99.8348 127.125 100.008 127.443 100.008C127.594 100.008 127.711 99.9813 127.794 99.9276C127.882 99.8739 127.985 99.7665 128.102 99.6053ZM125.685 96.7196C125.421 96.9393 125.131 97.1322 124.813 97.2982C124.457 97.4886 124.21 97.6327 124.074 97.7303C123.937 97.828 123.812 97.9452 123.7 98.0819C123.471 98.3651 123.356 98.6947 123.356 99.0707C123.356 99.3929 123.444 99.6591 123.62 99.869C123.8 100.079 124.027 100.184 124.301 100.184C124.54 100.184 124.765 100.111 124.975 99.9642C125.189 99.8129 125.351 99.6127 125.458 99.3636C125.609 99.0365 125.685 98.5629 125.685 97.9427V96.7196ZM136.944 95.0936V98.016C136.944 98.514 136.971 98.8827 137.025 99.1219C137.079 99.3563 137.181 99.5541 137.333 99.7152C137.464 99.8568 137.618 99.9618 137.794 100.03C137.975 100.094 138.204 100.133 138.482 100.147V100.316H133.802V100.147C134.037 100.147 134.259 100.111 134.469 100.037C134.679 99.9593 134.842 99.8568 134.96 99.7299C135.096 99.5785 135.194 99.371 135.253 99.1073C135.311 98.8436 135.34 98.4799 135.34 98.016V92.618C135.34 92.3055 135.323 91.9808 135.289 91.6439C135.24 91.2142 135.03 90.8944 134.659 90.6844C134.454 90.5721 134.169 90.5062 133.802 90.4867V90.3182H141.456L141.669 92.6986L141.5 92.7352C141.378 92.3641 141.266 92.0858 141.163 91.9003C140.934 91.4755 140.611 91.1459 140.196 90.9115C139.957 90.7748 139.681 90.6796 139.369 90.6258C139.056 90.5721 138.627 90.5453 138.08 90.5453H136.944V94.8666H137.237C138.102 94.8666 138.729 94.6737 139.12 94.288C139.291 94.1219 139.42 93.9266 139.508 93.702C139.596 93.4725 139.654 93.1747 139.684 92.8085L139.852 92.8158L139.808 97.2543H139.632C139.579 96.7562 139.486 96.3729 139.354 96.1044C139.227 95.8309 139.032 95.6112 138.768 95.4452C138.573 95.3231 138.331 95.2352 138.043 95.1815C137.76 95.1229 137.394 95.0936 136.944 95.0936ZM142.889 97.225C142.889 96.434 143.182 95.7284 143.768 95.1083C144.481 94.3563 145.333 93.9803 146.324 93.9803C147.315 93.9803 148.165 94.3563 148.873 95.1083C149.459 95.7333 149.752 96.4413 149.752 97.2323C149.752 98.0135 149.473 98.7093 148.917 99.3197C148.233 100.072 147.369 100.448 146.324 100.448C145.279 100.448 144.412 100.072 143.724 99.3197C143.455 99.0267 143.248 98.6996 143.101 98.3383C142.96 97.9769 142.889 97.6058 142.889 97.225ZM144.222 97.1444C144.222 97.994 144.412 98.7142 144.793 99.305C145.223 99.9642 145.748 100.294 146.368 100.294C146.632 100.294 146.888 100.221 147.137 100.074C147.386 99.9276 147.601 99.7225 147.782 99.4589C147.972 99.1854 148.126 98.8436 148.243 98.4335C148.36 98.0184 148.419 97.618 148.419 97.2323C148.419 96.8319 148.355 96.4291 148.228 96.0238C148.106 95.6136 147.94 95.2621 147.73 94.9691C147.33 94.4174 146.839 94.1415 146.258 94.1415C145.706 94.1415 145.23 94.432 144.83 95.0131C144.425 95.5941 144.222 96.3046 144.222 97.1444ZM153.316 95.1083C153.492 94.8007 153.69 94.5687 153.909 94.4125C154.315 94.1244 154.776 93.9803 155.294 93.9803C155.611 93.9803 155.853 94.0511 156.019 94.1927C156.17 94.3197 156.246 94.4759 156.246 94.6615C156.246 94.7982 156.199 94.9105 156.107 94.9984C156.019 95.0863 155.904 95.1302 155.762 95.1302C155.596 95.1302 155.452 95.0619 155.33 94.9252L155.103 94.6761C154.923 94.4857 154.71 94.3905 154.466 94.3905C154.134 94.3905 153.875 94.6053 153.69 95.035C153.504 95.4647 153.411 96.0629 153.411 96.8295V98.1991L153.419 98.7557C153.419 99.0878 153.438 99.3319 153.477 99.4882C153.516 99.6395 153.592 99.7665 153.704 99.869C153.841 100.001 154.092 100.101 154.459 100.169V100.316H151.229V100.169C151.522 100.13 151.732 100.077 151.859 100.008C151.986 99.9349 152.088 99.8129 152.166 99.642C152.22 99.5297 152.257 99.3612 152.276 99.1366C152.3 98.9071 152.313 98.5775 152.313 98.1478V96.3387C152.313 95.8358 152.3 95.4842 152.276 95.2841C152.252 95.079 152.198 94.913 152.115 94.786C152.032 94.6493 151.932 94.5516 151.815 94.493C151.697 94.4296 151.529 94.3905 151.309 94.3758V94.2294L153.192 93.9657C153.275 94.41 153.316 94.7909 153.316 95.1083ZM165.147 95.0936V98.016C165.147 98.514 165.174 98.8827 165.227 99.1219C165.281 99.3563 165.384 99.5541 165.535 99.7152C165.667 99.8568 165.821 99.9618 165.996 100.03C166.177 100.094 166.407 100.133 166.685 100.147V100.316H162.005V100.147C162.239 100.147 162.461 100.111 162.671 100.037C162.881 99.9593 163.045 99.8568 163.162 99.7299C163.299 99.5785 163.396 99.371 163.455 99.1073C163.513 98.8436 163.543 98.4799 163.543 98.016V92.618C163.543 92.3055 163.526 91.9808 163.491 91.6439C163.443 91.2142 163.233 90.8944 162.862 90.6844C162.657 90.5721 162.371 90.5062 162.005 90.4867V90.3182H169.658L169.871 92.6986L169.702 92.7352C169.58 92.3641 169.468 92.0858 169.365 91.9003C169.136 91.4755 168.814 91.1459 168.399 90.9115C168.159 90.7748 167.884 90.6796 167.571 90.6258C167.259 90.5721 166.829 90.5453 166.282 90.5453H165.147V94.8666H165.44C166.304 94.8666 166.931 94.6737 167.322 94.288C167.493 94.1219 167.622 93.9266 167.71 93.702C167.798 93.4725 167.857 93.1747 167.886 92.8085L168.054 92.8158L168.011 97.2543H167.835C167.781 96.7562 167.688 96.3729 167.556 96.1044C167.429 95.8309 167.234 95.6112 166.97 95.4452C166.775 95.3231 166.533 95.2352 166.245 95.1815C165.962 95.1229 165.596 95.0936 165.147 95.0936ZM170.923 94.2294L173.025 93.9657V98.1991L173.032 98.7557C173.032 99.0878 173.052 99.3319 173.091 99.4882C173.13 99.6395 173.206 99.7665 173.318 99.869C173.455 100.001 173.706 100.101 174.072 100.169V100.316H170.842V100.169C171.135 100.13 171.345 100.077 171.472 100.008C171.599 99.9349 171.702 99.8129 171.78 99.642C171.834 99.5297 171.87 99.3612 171.89 99.1366C171.914 98.9071 171.926 98.5775 171.926 98.1478V96.3387C171.926 95.8358 171.914 95.4842 171.89 95.2841C171.865 95.079 171.812 94.913 171.729 94.786C171.646 94.6493 171.545 94.5516 171.428 94.493C171.311 94.4296 171.143 94.3905 170.923 94.3758V94.2294ZM172.446 91.3509C172.256 91.3509 172.097 91.2899 171.97 91.1678C171.848 91.0458 171.787 90.892 171.787 90.7064C171.787 90.5258 171.851 90.3744 171.978 90.2523C172.105 90.1254 172.261 90.0619 172.446 90.0619C172.632 90.0619 172.788 90.1254 172.915 90.2523C173.042 90.3744 173.106 90.5258 173.106 90.7064C173.106 90.892 173.042 91.0458 172.915 91.1678C172.793 91.2899 172.637 91.3509 172.446 91.3509ZM177.388 95.1083C177.563 94.8007 177.761 94.5687 177.981 94.4125C178.386 94.1244 178.848 93.9803 179.365 93.9803C179.682 93.9803 179.924 94.0511 180.09 94.1927C180.242 94.3197 180.317 94.4759 180.317 94.6615C180.317 94.7982 180.271 94.9105 180.178 94.9984C180.09 95.0863 179.975 95.1302 179.834 95.1302C179.668 95.1302 179.524 95.0619 179.402 94.9252L179.175 94.6761C178.994 94.4857 178.782 94.3905 178.537 94.3905C178.205 94.3905 177.947 94.6053 177.761 95.035C177.576 95.4647 177.483 96.0629 177.483 96.8295V98.1991L177.49 98.7557C177.49 99.0878 177.51 99.3319 177.549 99.4882C177.588 99.6395 177.663 99.7665 177.776 99.869C177.912 100.001 178.164 100.101 178.53 100.169V100.316H175.3V100.169C175.593 100.13 175.803 100.077 175.93 100.008C176.057 99.9349 176.16 99.8129 176.238 99.642C176.291 99.5297 176.328 99.3612 176.348 99.1366C176.372 98.9071 176.384 98.5775 176.384 98.1478V96.3387C176.384 95.8358 176.372 95.4842 176.348 95.2841C176.323 95.079 176.269 94.913 176.186 94.786C176.103 94.6493 176.003 94.5516 175.886 94.493C175.769 94.4296 175.6 94.3905 175.381 94.3758V94.2294L177.263 93.9657C177.346 94.41 177.388 94.7909 177.388 95.1083ZM181.845 100.316V98.243H181.963C182.099 98.7508 182.27 99.1561 182.475 99.4589C182.851 100.011 183.291 100.286 183.794 100.286C184.101 100.286 184.367 100.194 184.592 100.008C184.836 99.8031 184.958 99.5126 184.958 99.1366C184.958 98.829 184.87 98.5604 184.694 98.3309C184.597 98.2089 184.472 98.0966 184.321 97.994C184.174 97.8915 183.925 97.7474 183.574 97.5619C182.959 97.2347 182.549 96.9613 182.343 96.7416C182.05 96.4291 181.904 96.0677 181.904 95.6576C181.904 95.2181 182.05 94.8397 182.343 94.5223C182.68 94.161 183.127 93.9803 183.684 93.9803C183.933 93.9803 184.165 94.0243 184.38 94.1122L184.629 94.222C184.707 94.2513 184.775 94.266 184.834 94.266C184.926 94.266 185.014 94.1927 185.097 94.0463H185.244L185.324 95.7089H185.171C185.117 95.4745 185.058 95.2865 184.995 95.1449C184.936 95.0033 184.851 94.8666 184.738 94.7347C184.587 94.5492 184.411 94.4051 184.211 94.3026C184.011 94.1952 183.813 94.1415 183.618 94.1415C183.344 94.1415 183.11 94.2416 182.915 94.4418C182.724 94.6371 182.629 94.8788 182.629 95.1669C182.629 95.4061 182.715 95.6234 182.885 95.8187C183.061 96.0091 183.33 96.1849 183.691 96.3461L184.467 96.6976C184.931 96.9076 185.278 97.1688 185.507 97.4813C185.737 97.7938 185.852 98.1625 185.852 98.5873C185.852 99.1 185.686 99.5248 185.354 99.8617C184.973 100.252 184.485 100.448 183.889 100.448C183.567 100.448 183.239 100.384 182.907 100.257C182.693 100.174 182.563 100.128 182.519 100.118C182.475 100.103 182.419 100.096 182.351 100.096C182.18 100.096 182.05 100.169 181.963 100.316H181.845ZM189.357 94.0902H191.225V94.3685H189.357V98.6312C189.357 99.1439 189.445 99.5101 189.621 99.7299C189.714 99.8519 189.836 99.9471 189.987 100.015C190.139 100.084 190.302 100.118 190.478 100.118C190.698 100.118 190.881 100.074 191.027 99.9862C191.174 99.8934 191.335 99.7274 191.511 99.4882L191.621 99.5834C191.459 99.8763 191.232 100.094 190.939 100.235C190.651 100.377 190.29 100.448 189.855 100.448C189.279 100.448 188.859 100.335 188.596 100.111C188.454 99.9935 188.361 99.8544 188.317 99.6932C188.273 99.5272 188.251 99.2318 188.251 98.807V94.3685H187.468V94.2513C187.785 94.1488 188.078 93.951 188.347 93.6581C188.508 93.4774 188.637 93.2992 188.735 93.1234C188.832 92.9427 188.925 92.7108 189.013 92.4276L189.086 92.1859H189.357V94.0902ZM200.067 95.4232V98.016C200.067 98.514 200.094 98.8851 200.148 99.1293C200.207 99.3685 200.312 99.5663 200.463 99.7225C200.595 99.8592 200.746 99.9618 200.917 100.03C201.093 100.094 201.322 100.133 201.606 100.147V100.316H196.925V100.147C197.209 100.133 197.436 100.094 197.607 100.03C197.782 99.9618 197.936 99.8592 198.068 99.7225C198.224 99.5663 198.329 99.3685 198.383 99.1293C198.437 98.89 198.463 98.5189 198.463 98.016V92.618C198.463 92.1151 198.437 91.744 198.383 91.5048C198.329 91.2655 198.224 91.0677 198.068 90.9115C197.936 90.7699 197.782 90.6674 197.607 90.6039C197.431 90.5404 197.204 90.5013 196.925 90.4867V90.3182H200.456C201.046 90.3182 201.435 90.3207 201.62 90.3256C202.377 90.3597 202.97 90.4623 203.4 90.6332C203.883 90.8285 204.257 91.1215 204.521 91.5121C204.789 91.8978 204.923 92.347 204.923 92.8597C204.923 93.6215 204.635 94.2318 204.059 94.6908C203.883 94.8275 203.688 94.9398 203.473 95.0277C203.263 95.1156 202.98 95.1986 202.624 95.2767C202.917 95.3988 203.134 95.5258 203.275 95.6576C203.388 95.7601 203.49 95.8895 203.583 96.0458C203.676 96.1971 203.815 96.4681 204.001 96.8588C204.435 97.7523 204.762 98.4066 204.982 98.8216C205.207 99.2318 205.395 99.5297 205.546 99.7152C205.668 99.8666 205.785 99.9716 205.898 100.03C206.015 100.089 206.173 100.128 206.374 100.147V100.316H203.942C203.82 100.047 203.742 99.8763 203.708 99.8031L203.195 98.6385C202.887 97.9403 202.577 97.3226 202.265 96.7855C201.952 96.2533 201.667 95.8895 201.408 95.6942C201.276 95.5966 201.134 95.5282 200.983 95.4891C200.832 95.4452 200.646 95.4232 200.426 95.4232H200.067ZM200.067 95.2621H200.346C200.951 95.2621 201.383 95.2279 201.642 95.1595C201.906 95.0912 202.152 94.9496 202.382 94.7347C202.895 94.2465 203.151 93.641 203.151 92.9183C203.151 92.5326 203.075 92.1713 202.924 91.8343C202.777 91.4925 202.572 91.2118 202.309 90.9921C202.104 90.826 201.859 90.7113 201.576 90.6478C201.293 90.5795 200.89 90.5453 200.368 90.5453H200.067V95.2621ZM208.847 96.3314C208.827 96.5707 208.817 96.744 208.817 96.8514C208.817 97.2762 208.878 97.6913 209 98.0966C209.127 98.5018 209.298 98.8387 209.513 99.1073C209.733 99.3807 210.004 99.5956 210.326 99.7518C210.653 99.9081 210.995 99.9862 211.351 99.9862C211.615 99.9862 211.864 99.9423 212.098 99.8544C212.338 99.7665 212.536 99.6444 212.692 99.4882C212.868 99.3173 213.019 99.0438 213.146 98.6678L213.292 98.7191C213.165 99.2904 212.892 99.7225 212.472 100.015C212.057 100.304 211.503 100.448 210.809 100.448C210.209 100.448 209.694 100.352 209.264 100.162C208.834 99.9716 208.471 99.6786 208.173 99.2831C207.758 98.7313 207.55 98.0526 207.55 97.2469C207.55 96.1483 207.943 95.2865 208.729 94.6615C209.301 94.2074 209.952 93.9803 210.685 93.9803C211.076 93.9803 211.437 94.0511 211.769 94.1927C212.101 94.3295 212.382 94.5297 212.611 94.7933C212.968 95.2035 213.146 95.7162 213.146 96.3314H208.847ZM212.055 96.0458C212.02 95.5575 211.93 95.1815 211.784 94.9178C211.652 94.6786 211.476 94.4906 211.256 94.3539C211.036 94.2123 210.802 94.1415 210.553 94.1415C210.133 94.1415 209.765 94.3221 209.447 94.6835C209.135 95.0448 208.949 95.4989 208.89 96.0458H212.055ZM216.974 93.9657C217.042 94.2489 217.076 94.5126 217.076 94.7567V94.8739C217.682 94.2782 218.402 93.9803 219.237 93.9803C219.862 93.9803 220.365 94.1268 220.746 94.4198C221.122 94.7079 221.31 95.118 221.31 95.6503V98.7557C221.31 99.0878 221.329 99.3319 221.368 99.4882C221.407 99.6395 221.483 99.7665 221.595 99.869C221.732 100.001 221.984 100.101 222.35 100.169V100.316H219.12V100.169C219.413 100.13 219.623 100.077 219.75 100.008C219.877 99.9349 219.979 99.8129 220.057 99.642C220.111 99.5297 220.148 99.3612 220.167 99.1366C220.192 98.9071 220.204 98.58 220.204 98.1551V96.6024C220.204 96.0702 220.184 95.6796 220.145 95.4305C220.111 95.1815 220.043 94.9813 219.94 94.83C219.828 94.6591 219.667 94.5272 219.457 94.4344C219.247 94.3368 219.015 94.288 218.761 94.288C218.487 94.288 218.231 94.3417 217.992 94.4491C217.757 94.5565 217.572 94.703 217.435 94.8885C217.289 95.0839 217.191 95.306 217.142 95.555C217.098 95.7992 217.076 96.2069 217.076 96.7782V98.2137L217.084 98.7557C217.084 99.0878 217.103 99.3319 217.142 99.4882C217.181 99.6395 217.257 99.7665 217.369 99.869C217.506 100.001 217.757 100.101 218.124 100.169V100.316H214.894V100.169C215.187 100.13 215.397 100.077 215.524 100.008C215.651 99.9349 215.753 99.8129 215.831 99.642C215.885 99.5297 215.922 99.3612 215.941 99.1366C215.965 98.9071 215.978 98.5775 215.978 98.1478V96.3387C215.978 95.8358 215.965 95.4842 215.941 95.2841C215.917 95.079 215.863 94.913 215.78 94.786C215.697 94.6493 215.597 94.5516 215.48 94.493C215.362 94.4296 215.194 94.3905 214.974 94.3758V94.2294L216.974 93.9657ZM225.416 94.0902H227.284V94.3685H225.416V98.6312C225.416 99.1439 225.504 99.5101 225.68 99.7299C225.772 99.8519 225.895 99.9471 226.046 100.015C226.197 100.084 226.361 100.118 226.537 100.118C226.756 100.118 226.939 100.074 227.086 99.9862C227.232 99.8934 227.394 99.7274 227.569 99.4882L227.679 99.5834C227.518 99.8763 227.291 100.094 226.998 100.235C226.71 100.377 226.349 100.448 225.914 100.448C225.338 100.448 224.918 100.335 224.654 100.111C224.513 99.9935 224.42 99.8544 224.376 99.6932C224.332 99.5272 224.31 99.2318 224.31 98.807V94.3685H223.526V94.2513C223.844 94.1488 224.137 93.951 224.405 93.6581C224.566 93.4774 224.696 93.2992 224.793 93.1234C224.891 92.9427 224.984 92.7108 225.072 92.4276L225.145 92.1859H225.416V94.0902Z" fill="#FF3A3A" fill-opacity="0.93"/>
</svg>
