<svg width="290" height="117" viewBox="0 0 290 117" fill="none" xmlns="http://www.w3.org/2000/svg">
<rect width="290" height="117" fill="black"/>
<path d="M114.207 65H109.598V51.2891H103.406V65H98.8359V34.4336H103.406V47.0312H109.598V34.4336H114.207V65ZM133.152 62.207C133.152 64.069 132.215 65 130.34 65H120.633C118.784 65 117.859 64.069 117.859 62.207V34.4336H122.43V61.0742H128.582V34.4336H133.152V62.207ZM151.844 62.207C151.844 64.069 150.913 65 149.051 65H136.844V34.4336H148.973C150.783 34.4336 151.688 35.3711 151.688 37.2461V45.1172C151.688 46.1589 151.362 46.9661 150.711 47.5391C150.62 47.6172 149.826 48.1185 148.328 49.043C149.878 49.9935 150.698 50.5143 150.789 50.6055C151.492 51.2174 151.844 52.0573 151.844 53.125V62.207ZM147.137 45.6836V38.2812H141.414V47.2461H144.93L147.137 45.6836ZM147.254 61.1523V52.4414L145.008 50.957H141.414V61.1523H147.254ZM167.449 65H155.438V34.4336H160.008V60.918H167.449V65ZM185.574 62.207C185.574 64.069 184.65 65 182.801 65H172.879C171.069 65 170.164 64.069 170.164 62.207V37.2461C170.164 35.3711 171.069 34.4336 172.879 34.4336H182.801C184.65 34.4336 185.574 35.3711 185.574 37.2461V62.207ZM181.004 61.0742V38.3594H174.734V61.0742H181.004ZM204.305 62.207C204.305 64.069 203.374 65 201.512 65H191.98C190.171 65 189.266 64.069 189.266 62.207V37.2461C189.266 35.3711 190.171 34.4336 191.98 34.4336H201.512C203.374 34.4336 204.305 35.3711 204.305 37.2461V44.3945H199.754V38.3594H193.836V61.0742H199.754V54.6484H204.305V62.207ZM223.309 65H218.27L212.469 51.3672V65H207.898V34.4336H212.469V47.3633L217.547 34.4336H222.547V34.6484L216.336 49.1602L223.309 65ZM237.84 65H225.164V34.4336H237.723V38.4766H229.734V47.4023H236.609V51.3672H229.734V60.957H237.84V65ZM256.629 65H251.863L246.824 50.8008C246.824 50.8008 246.824 49.8828 246.824 48.0469H251.316V38.3594H245.555V65H240.984V34.4336H253.113C254.949 34.4336 255.867 35.3711 255.867 37.2461V48.3594C255.867 49.6484 255.431 50.4818 254.559 50.8594C254.09 51.0547 253.1 51.1523 251.59 51.1523L256.629 65Z" fill="white"/>
<path d="M105.07 79.585C105.82 79.725 106.39 80.02 106.78 80.47C107.18 80.92 107.38 81.505 107.38 82.225C107.38 83.115 107.055 83.8 106.405 84.28C105.755 84.76 104.79 85 103.51 85H98.83V74.5H103.21C104.35 74.5 105.235 74.735 105.865 75.205C106.505 75.665 106.825 76.325 106.825 77.185C106.825 77.785 106.665 78.29 106.345 78.7C106.035 79.11 105.61 79.405 105.07 79.585ZM99.595 75.16V79.345H103.18C104.1 79.345 104.805 79.17 105.295 78.82C105.795 78.46 106.045 77.935 106.045 77.245C106.045 76.565 105.795 76.05 105.295 75.7C104.805 75.34 104.1 75.16 103.18 75.16H99.595ZM103.51 84.34C104.53 84.34 105.3 84.165 105.82 83.815C106.35 83.455 106.615 82.905 106.615 82.165C106.615 81.425 106.35 80.88 105.82 80.53C105.3 80.18 104.53 80.005 103.51 80.005H99.595V84.34H103.51ZM113.955 81.385V85H113.19V81.385L108.96 74.5H109.8L113.595 80.68L117.39 74.5H118.185L113.955 81.385ZM130.047 85.075C129.017 85.075 128.087 84.845 127.257 84.385C126.427 83.915 125.772 83.275 125.292 82.465C124.822 81.655 124.587 80.75 124.587 79.75C124.587 78.75 124.822 77.845 125.292 77.035C125.772 76.225 126.427 75.59 127.257 75.13C128.087 74.66 129.017 74.425 130.047 74.425C131.077 74.425 132.007 74.655 132.837 75.115C133.667 75.575 134.317 76.21 134.787 77.02C135.267 77.83 135.507 78.74 135.507 79.75C135.507 80.76 135.267 81.67 134.787 82.48C134.317 83.29 133.667 83.925 132.837 84.385C132.007 84.845 131.077 85.075 130.047 85.075ZM130.047 84.37C130.927 84.37 131.722 84.17 132.432 83.77C133.142 83.37 133.702 82.82 134.112 82.12C134.522 81.41 134.727 80.62 134.727 79.75C134.727 78.88 134.522 78.095 134.112 77.395C133.702 76.685 133.142 76.13 132.432 75.73C131.722 75.33 130.927 75.13 130.047 75.13C129.167 75.13 128.367 75.33 127.647 75.73C126.937 76.13 126.377 76.685 125.967 77.395C125.557 78.095 125.352 78.88 125.352 79.75C125.352 80.62 125.557 81.41 125.967 82.12C126.377 82.82 126.937 83.37 127.647 83.77C128.367 84.17 129.167 84.37 130.047 84.37ZM143.425 85.075C142.395 85.075 141.465 84.845 140.635 84.385C139.815 83.925 139.165 83.29 138.685 82.48C138.215 81.67 137.98 80.76 137.98 79.75C137.98 78.74 138.215 77.83 138.685 77.02C139.165 76.21 139.815 75.575 140.635 75.115C141.465 74.655 142.395 74.425 143.425 74.425C144.185 74.425 144.885 74.55 145.525 74.8C146.165 75.04 146.71 75.4 147.16 75.88L146.68 76.375C145.84 75.545 144.765 75.13 143.455 75.13C142.575 75.13 141.775 75.33 141.055 75.73C140.335 76.13 139.77 76.685 139.36 77.395C138.95 78.095 138.745 78.88 138.745 79.75C138.745 80.62 138.95 81.41 139.36 82.12C139.77 82.82 140.335 83.37 141.055 83.77C141.775 84.17 142.575 84.37 143.455 84.37C144.755 84.37 145.83 83.95 146.68 83.11L147.16 83.605C146.71 84.085 146.16 84.45 145.51 84.7C144.87 84.95 144.175 85.075 143.425 85.075ZM157.793 84.31V85H150.548V74.5H157.568V75.19H151.313V79.33H156.908V80.005H151.313V84.31H157.793ZM167.902 82.045H161.812L160.477 85H159.652L164.482 74.5H165.247L170.077 85H169.252L167.902 82.045ZM167.617 81.4L164.857 75.34L162.112 81.4H167.617ZM181.358 74.5V85H180.728L173.573 75.88V85H172.808V74.5H173.453L180.593 83.62V74.5H181.358ZM193.35 79.795H194.085V83.725C193.625 84.165 193.065 84.5 192.405 84.73C191.755 84.96 191.065 85.075 190.335 85.075C189.295 85.075 188.355 84.845 187.515 84.385C186.685 83.925 186.03 83.29 185.55 82.48C185.08 81.67 184.845 80.76 184.845 79.75C184.845 78.74 185.08 77.83 185.55 77.02C186.03 76.21 186.685 75.575 187.515 75.115C188.355 74.655 189.3 74.425 190.35 74.425C191.12 74.425 191.825 74.55 192.465 74.8C193.115 75.04 193.67 75.395 194.13 75.865L193.65 76.375C193.21 75.935 192.715 75.62 192.165 75.43C191.625 75.23 191.025 75.13 190.365 75.13C189.465 75.13 188.65 75.33 187.92 75.73C187.2 76.13 186.635 76.685 186.225 77.395C185.815 78.095 185.61 78.88 185.61 79.75C185.61 80.61 185.815 81.395 186.225 82.105C186.645 82.805 187.215 83.36 187.935 83.77C188.655 84.17 189.465 84.37 190.365 84.37C191.565 84.37 192.56 84.05 193.35 83.41V79.795ZM205.566 85L203.061 81.49C202.691 81.54 202.351 81.565 202.041 81.565H199.041V85H198.276V74.5H202.041C203.361 74.5 204.396 74.815 205.146 75.445C205.896 76.065 206.271 76.93 206.271 78.04C206.271 78.87 206.056 79.57 205.626 80.14C205.206 80.7 204.601 81.095 203.811 81.325L206.436 85H205.566ZM202.041 80.89C203.161 80.89 204.016 80.645 204.606 80.155C205.196 79.655 205.491 78.95 205.491 78.04C205.491 77.13 205.196 76.43 204.606 75.94C204.016 75.44 203.161 75.19 202.041 75.19H199.041V80.89H202.041ZM212.657 85.075C211.887 85.075 211.152 84.945 210.452 84.685C209.762 84.415 209.222 84.07 208.832 83.65L209.177 83.08C209.547 83.47 210.042 83.79 210.662 84.04C211.292 84.28 211.952 84.4 212.642 84.4C213.642 84.4 214.397 84.21 214.907 83.83C215.417 83.45 215.672 82.955 215.672 82.345C215.672 81.875 215.537 81.5 215.267 81.22C214.997 80.94 214.662 80.725 214.262 80.575C213.862 80.425 213.322 80.27 212.642 80.11C211.872 79.92 211.252 79.735 210.782 79.555C210.322 79.375 209.927 79.1 209.597 78.73C209.277 78.35 209.117 77.845 209.117 77.215C209.117 76.705 209.252 76.24 209.522 75.82C209.792 75.39 210.202 75.05 210.752 74.8C211.312 74.55 212.007 74.425 212.837 74.425C213.417 74.425 213.987 74.51 214.547 74.68C215.107 74.85 215.592 75.08 216.002 75.37L215.717 75.985C215.297 75.695 214.832 75.475 214.322 75.325C213.822 75.175 213.327 75.1 212.837 75.1C211.867 75.1 211.132 75.295 210.632 75.685C210.132 76.075 209.882 76.58 209.882 77.2C209.882 77.67 210.017 78.045 210.287 78.325C210.557 78.605 210.892 78.82 211.292 78.97C211.692 79.12 212.237 79.28 212.927 79.45C213.697 79.64 214.312 79.825 214.772 80.005C215.232 80.185 215.622 80.46 215.942 80.83C216.272 81.19 216.437 81.68 216.437 82.3C216.437 82.81 216.297 83.275 216.017 83.695C215.747 84.115 215.327 84.45 214.757 84.7C214.187 84.95 213.487 85.075 212.657 85.075ZM229.793 85L229.778 76.015L225.383 83.605H225.008L220.613 76.045V85H219.863V74.5H220.508L225.203 82.615L229.898 74.5H230.528L230.543 85H229.793ZM235.029 74.5H235.794V85H235.029V74.5ZM242.288 75.19H238.508V74.5H246.833V75.19H243.053V85H242.288V75.19ZM258.105 74.5V85H257.34V80.005H250.32V85H249.555V74.5H250.32V79.33H257.34V74.5H258.105Z" fill="white"/>
<rect x="9" y="59" width="26.1496" height="26.1496" rx="6" transform="rotate(-45 9 59)" fill="#FF0000" fill-opacity="0.93"/>
<rect x="30.5094" y="37.4906" width="26.1496" height="26.1496" rx="6" transform="rotate(-45 30.5094 37.4906)" fill="#2400FF" fill-opacity="0.97"/>
<rect x="52.0189" y="59" width="26.1496" height="26.1496" rx="6" transform="rotate(-45 52.0189 59)" fill="#DCD302"/>
<rect x="30.5095" y="80.5094" width="26.1496" height="26.1496" rx="6" transform="rotate(-45 30.5095 80.5094)" fill="#04DE00" fill-opacity="0.93"/>
</svg>
